<svg width="118" height="90" fill="none" xmlns="http://www.w3.org/2000/svg"><g clip-path="url(#clip0_1_350)" fill="#fff"><path d="M84.663 11.663L62.138 0 39.613 11.663v9.061l-6.273 3.248v23.433h51.326V11.663h-.003zm-42.47 10.64l9.919-5.136 10.067 5.213v.066h.133l5.995 3.105v12.78H42.193V22.304zm39.887 22.51H35.92V25.551l3.69-1.912V40.92h31.28V23.97l-6.125-3.172V13.47h-2.583v5.992l-10.067-5.213-9.919 5.137v-6.144L62.141 2.918l19.946 10.324v31.571h-.007z"/><path d="M51.487 29.998h-3.964v3.978h3.964v-3.978zm5.189 0H52.71v3.978h3.965v-3.978zm-9.153-1.225h3.964v-3.978a3.972 3.972 0 00-3.964 3.978zm5.188-3.978v3.978h3.965a3.972 3.972 0 00-3.965-3.978zM12.054 77.571h3.637V57.404H9.604c-2.46 0-4.406.572-5.785 1.7-1.378 1.126-2.047 2.626-2.047 4.588 0 1.564.382 2.83 1.133 3.757.757.937 1.678 1.573 2.734 1.89l.808.24-.783.317c-.766.31-1.602 1.19-2.491 2.611L0 77.567h3.791l3.075-5.076c.442-.715.864-1.209 1.293-1.513.442-.31 1.016-.468 1.706-.468h2.186v7.058l.003.003zM9.78 67.516c-1.384 0-2.46-.314-3.191-.93-.745-.63-1.123-1.514-1.123-2.63 0-1.612.747-3.53 4.314-3.53h2.274v7.087H9.78v.003zm13.505 4.152h6.147v5.903h3.485V63.009h-3.485V69h-6.147v-5.99h-3.488v14.56h3.488v-5.903zM57.02 76.82l-.695-3.057c-1.416.678-2.806 1.02-4.137 1.02-3.864 0-5.823-2.415-5.823-7.179 0-4.763 1.968-7.415 5.851-7.415.911 0 2.164.272 3.816.832l.798-3.032c-1.536-.627-3.097-.946-4.642-.946-3.088 0-5.482.962-7.122 2.864-1.65 1.912-2.485 4.51-2.485 7.726s.83 5.684 2.466 7.53c1.628 1.832 3.97 2.762 6.96 2.762 1.865 0 3.549-.373 5.012-1.107v.003zm12.454-13.811h-11.88v2.668h4.197V77.57h3.488V65.677h4.195v-2.668zm13.833 12.748c1.255-1.408 1.89-3.323 1.89-5.69 0-2.368-.666-4.13-1.981-5.438-1.316-1.31-3.154-1.975-5.466-1.975-2.123 0-4.09.393-5.85 1.171v18.079h3.456v-4.548l.398.142c.674.244 1.475.367 2.38.367 2.186 0 3.927-.709 5.173-2.11v.002zm-5.765-.617c-.65 0-1.325-.148-2.006-.44l-.18-.076v-8.703l.19-.073c.7-.27 1.371-.405 1.996-.405 2.725 0 4.106 1.595 4.106 4.744 0 3.15-1.381 4.953-4.106 4.953zm17.025 2.785c2.17 0 3.904-.696 5.16-2.07 1.261-1.38 1.901-3.26 1.901-5.583 0-2.323-.64-4.171-1.902-5.554-1.255-1.374-2.993-2.07-5.16-2.07-2.166 0-3.91.696-5.175 2.07-1.271 1.38-1.918 3.247-1.918 5.551 0 2.304.644 4.178 1.918 5.567 1.265 1.384 3.006 2.083 5.175 2.083v.006zm-2.621-11.14c.618-.893 1.498-1.342 2.62-1.342 1.123 0 2 .446 2.609 1.329.583.848.88 2.025.88 3.504 0 1.478-.297 2.661-.88 3.52-.609.892-1.486 1.344-2.608 1.344-1.123 0-2.006-.452-2.621-1.342-.593-.858-.896-2.041-.896-3.52 0-1.477.303-2.633.896-3.49v-.003zm19.759-6.03c1.646 0 2.892-.405 3.709-1.206.757-.743 1.183-1.763 1.271-3.035h-2.744c-.098 1.32-.864 2.016-2.236 2.016-1.372 0-2.138-.696-2.236-2.016h-2.744c.088 1.257.511 2.273 1.258 3.023.805.807 2.057 1.218 3.722 1.218zm2.927 2.254c-1.211 1.64-2.224 3.086-3.003 4.298-.801 1.247-1.883 3.045-3.214 5.342l-.69 1.19.138-1.367c.079-.763.117-1.95.117-3.529v-5.931h-3.252v14.562h3.287c2.245-3.994 4.368-7.472 6.311-10.34l.668-.987-.132 1.186a23.268 23.268 0 00-.117 2.548v7.593h3.252V63.012h-3.369l.004-.003z"/></g><defs><clipPath id="clip0_1_350"><path fill="#fff" d="M0 0h118v90H0z"/></clipPath></defs></svg>