<svg width="260" height="59" fill="none" xmlns="http://www.w3.org/2000/svg"><path d="M59.652 13.977L33.692.5 7.73 13.977v10.471L.5 28.201V55.28h59.156V13.977h-.004zM10.703 26.273l11.433-5.936 11.603 6.024v.077h.152l6.91 3.588v14.768H10.703v-18.52zm45.972 26.011H3.473V30.026l4.253-2.21v19.97h36.052V28.197l-7.059-3.665v-8.466h-2.977v6.923L22.14 16.965l-11.432 5.936v-7.099l22.988-11.93 22.988 11.93v36.482h-.008z" fill="#626D7B"/><path d="M21.416 35.164h-4.57v4.598h4.57v-4.598zm5.979 0h-4.569v4.598h4.57v-4.598zm-10.548-1.415h4.569v-4.597c-2.523 0-4.57 2.059-4.57 4.597zm5.979-4.597v4.597h4.57c0-2.538-2.047-4.597-4.57-4.597zM95.512 52.5h5.562v-32h-9.31c-3.763 0-6.74.909-8.848 2.697-2.108 1.788-3.13 4.168-3.13 7.282 0 2.48.583 4.49 1.731 5.96 1.158 1.487 2.567 2.497 4.183 2.999l1.235.381-1.197.503c-1.172.492-2.45 1.888-3.81 4.143l-4.854 8.03h5.799l4.703-8.055c.676-1.135 1.322-1.919 1.978-2.4.676-.493 1.554-.744 2.61-.744h3.343v11.199l.005.005zm-3.478-15.955c-2.118 0-3.763-.497-4.882-1.476-1.139-1-1.718-2.4-1.718-4.174 0-2.556 1.144-5.599 6.6-5.599h3.478V36.54h-3.478v.005zm21.358 6.632h9.37V52.5h5.312v-23h-5.312v9.463h-9.37V29.5h-5.318v23h5.318v-9.323zm51.682 7.63l-1.057-4.685c-2.158 1.038-4.277 1.562-6.305 1.562-5.887 0-8.871-3.7-8.871-11 0-7.299 2.999-11.363 8.914-11.363 1.389 0 3.297.417 5.815 1.275l1.216-4.646c-2.34-.96-4.719-1.45-7.074-1.45-4.705 0-8.352 1.474-10.851 4.39-2.513 2.929-3.787 6.91-3.787 11.838 0 4.928 1.264 8.71 3.758 11.538 2.48 2.808 6.05 4.234 10.606 4.234 2.84 0 5.406-.572 7.636-1.697v.004zm19-21.307h-18v4.214h6.36V52.5h5.285V33.714h6.355V29.5zm22.017 19.74c1.982-2.122 2.983-5.006 2.983-8.573s-1.051-6.222-3.128-8.192c-2.077-1.974-4.981-2.975-8.632-2.975-3.352 0-6.46.591-9.24 1.764V58.5h5.459v-6.852l.628.215c1.066.367 2.331.553 3.761.553 3.452 0 6.201-1.068 8.169-3.18v.004zm-9.106-.93c-1.026 0-2.092-.224-3.168-.662l-.284-.115V34.421l.299-.11c1.106-.405 2.167-.61 3.153-.61 4.304 0 6.486 2.403 6.486 7.147 0 4.745-2.182 7.462-6.486 7.462zm26.114 4.19c3.372 0 6.068-1.048 8.019-3.116 1.961-2.078 2.956-4.908 2.956-8.405 0-3.498-.995-6.28-2.956-8.363-1.951-2.068-4.652-3.116-8.019-3.116-3.368 0-6.079 1.048-8.044 3.116-1.976 2.078-2.981 4.889-2.981 8.358 0 3.469 1 6.29 2.981 8.381 1.965 2.082 4.671 3.136 8.044 3.136v.009zm-4.074-16.772c.961-1.344 2.329-2.02 4.074-2.02 1.745 0 3.108.671 4.054 2 .907 1.278 1.367 3.05 1.367 5.275 0 2.226-.46 4.008-1.367 5.299-.946 1.344-2.309 2.025-4.054 2.025s-3.118-.681-4.074-2.02c-.921-1.292-1.392-3.074-1.392-5.299 0-2.225.471-3.964 1.392-5.256v-.004zm30.549-9.228c2.48 0 4.356-.669 5.586-1.99 1.14-1.228 1.781-2.91 1.914-5.01h-4.132c-.147 2.178-1.302 3.328-3.368 3.328s-3.22-1.15-3.367-3.328h-4.133c.133 2.074.77 3.75 1.895 4.989 1.212 1.332 3.097 2.011 5.605 2.011zm4.428 3c-1.826 2.589-3.352 4.873-4.526 6.787-1.208 1.97-2.838 4.808-4.844 8.436l-1.041 1.88.209-2.16c.119-1.204.176-3.078.176-5.572v-9.366h-4.902V52.5h4.954c3.385-6.307 6.584-11.8 9.513-16.328l1.007-1.56-.199 1.875c-.119 1.1-.176 2.454-.176 4.023V52.5h4.901V29.505h-5.077l.005-.005z" fill="#626D7B"/></svg>