<svg width="29" height="28" fill="none" xmlns="http://www.w3.org/2000/svg"><path d="M23.934 4.125c2.625 2.625 4.25 6.063 4.25 9.813 0 7.624-6.375 13.874-14.062 13.874-2.313 0-4.563-.625-6.625-1.687L.184 28l1.938-7.188a13.891 13.891 0 01-1.875-6.937C.247 6.25 6.497 0 14.122 0c3.75 0 7.25 1.5 9.812 4.125zm-9.812 21.313c6.375 0 11.687-5.188 11.687-11.5 0-3.126-1.312-6-3.5-8.188a11.394 11.394 0 00-8.125-3.375c-6.375 0-11.562 5.188-11.562 11.5 0 2.188.625 4.313 1.75 6.188l.312.437-1.187 4.25 4.375-1.188.375.25c1.812 1.063 3.812 1.625 5.875 1.625zm6.375-8.625c.312.187.562.25.625.437.125.125.125.813-.188 1.625-.312.813-1.687 1.563-2.312 1.625-1.125.188-2 .125-4.188-.875-3.5-1.5-5.75-5-5.937-5.188-.188-.25-1.375-1.874-1.375-3.624 0-1.688.875-2.5 1.187-2.876.313-.375.688-.437.938-.437h.625c.25 0 .5-.063.812.625.25.688 1 2.375 1.063 2.563.062.187.125.374 0 .624-.625 1.313-1.375 1.25-1 1.876 1.375 2.312 2.687 3.124 4.75 4.124.312.188.5.125.75-.062.187-.25.875-1.063 1.062-1.375.25-.375.5-.313.813-.188.312.126 2 .938 2.375 1.126z" fill="#fff"/></svg>